<svg width="27" height="8" viewBox="0 0 27 8" fill="none" xmlns="http://www.w3.org/2000/svg">
<path fill-rule="evenodd" clip-rule="evenodd" d="M11.3556 0.648545C11.5497 0.844959 11.5479 1.16154 11.3515 1.35564L5.28003 7.35564C5.08525 7.54812 4.77189 7.54812 4.57712 7.35564L0.648545 3.47329C0.452131 3.27918 0.450258 2.96261 0.644361 2.76619C0.838464 2.56978 1.15504 2.5679 1.35146 2.76201L4.92857 6.29704L10.6485 0.644361C10.845 0.450258 11.1615 0.452131 11.3556 0.648545Z" fill="#9DB9FF"/>
<path fill-rule="evenodd" clip-rule="evenodd" d="M15.5 4.5C15.5 4.22386 15.7239 4 16 4H26C26.2761 4 26.5 4.22386 26.5 4.5C26.5 4.77614 26.2761 5 26 5H16C15.7239 5 15.5 4.77614 15.5 4.5Z" fill="#FF4D68"/>
</svg>
